<svg width="34" height="34" viewBox="0 0 34 34" fill="none" xmlns="http://www.w3.org/2000/svg">
<circle cx="17" cy="17" r="17" fill="#F1F1F1"/>
<path d="M25.3333 13.2353C25.3333 10.9607 24.4 8.90188 22.8933 7.41294C21.385 5.92235 19.3017 5 17 5C14.6983 5 12.615 5.92235 11.1067 7.41294C9.6 8.90188 8.66667 10.9607 8.66667 13.2353C8.66667 15.5099 9.6 17.5687 11.1067 19.0576C12.615 20.5482 14.6983 21.4706 17 21.4706C19.3017 21.4706 21.385 20.5482 22.8933 19.0576C24.4 17.5687 25.3333 15.5099 25.3333 13.2353ZM7 29.7059C7 31.3529 10.75 33 17 33C22.8633 33 27 31.3529 27 29.7059C27 26.4118 23.0767 23.1176 17 23.1176C10.75 23.1176 7 26.4118 7 29.7059Z" fill="#B9B9B9"/>
</svg>
